<svg xmlns="http://www.w3.org/2000/svg" width="128" height="128" viewBox="0 0 128 128">
  <title>GhostDeck — terminal panes</title>
  <desc>A dark rounded terminal window divided into one tall left pane and two smaller right panes.</desc>
  <defs>
    <linearGradient id="body" x1="0" y1="0" x2="0" y2="1">
      <stop stop-color="#303844"/>
      <stop offset="1" stop-color="#161B24"/>
    </linearGradient>
    <linearGradient id="screen" x1="0" y1="0" x2="1" y2="1">
      <stop stop-color="#202B44"/>
      <stop offset="1" stop-color="#101727"/>
    </linearGradient>
  </defs>
  <rect x="8" y="10" width="112" height="112" rx="10" fill="#0B101A"/>
  <rect x="8" y="6" width="112" height="112" rx="10" fill="url(#body)"/>
  <rect x="17" y="15" width="94" height="94" rx="5" fill="url(#screen)" stroke="#69778D" stroke-width="2"/>
  <path fill="#203B67" d="M25 20h35v84H25a3 3 0 0 1-3-3V23a3 3 0 0 1 3-3Z"/>
  <path fill="none" stroke="#69778D" stroke-width="2" d="M64 16v92m0-46h46"/>
  <path fill="#B7D1F2" fill-opacity="0.22" d="M28 41a13 13 0 0 1 26 0v15c0 5-6 7-9 3-2 4-6 4-8 0-3 4-9 2-9-3Z"/>
  <path fill="none" stroke="#E2EDFF" stroke-width="2.8" stroke-linecap="round" stroke-linejoin="round" d="m33 40 4.5 3.5-4.5 3.5m10-3.5h6"/>
</svg>
